/* XPM */
static char *racer[] = {
/* columns rows colors chars-per-pixel */
"32 43 256 2 ",
"   c #022102BE03ED",
".  c #0B8C038304A5",
"X  c #060608080707",
"o  c #0A8A09090686",
"O  c #01ED04270944",
"+  c #0B5806200A3D",
"@  c #035A09270ABD",
"#  c #09E109FF0B1D",
"$  c #13E10404039D",
"%  c #1B6404040497",
"&  c #169708880484",
"*  c #1F1F08080707",
"=  c #161607070B0B",
"-  c #1E1E06860888",
";  c #13590A7F0BAF",
":  c #1B820B0B0AD8",
">  c #000007071010",
",  c #0D0D07071010",
"<  c #0D740E411077",
"1  c #13940C8C1111",
"2  c #1B1B0F0F1515",
"3  c #0D4D105011D2",
"4  c #131310901191",
"5  c #1A1A10101313",
"6  c #23E404850606",
"7  c #24A40C0C0282",
"8  c #2DD80B610606",
"9  c #20CB04040909",
"0  c #2C2C06060808",
"q  c #238A0D0D0AA4",
"w  c #2C0F0C0C0A43",
"e  c #3A3A00800282",
"r  c #32DD0AB50606",
"t  c #3C3C0B8B0505",
"y  c #373701010909",
"u  c #35350A9D09C1",
"i  c #39D30B7209A3",
"p  c #242410100D0D",
"a  c #343410100202",
"s  c #3D9313130359",
"d  c #34B411920C0C",
"f  c #383811920C0C",
"g  c #363616161111",
"h  c #3F3F20200B0B",
"j  c #4F4F07070707",
"k  c #44EF0D63055B",
"l  c #484808080505",
"z  c #424207070A8A",
"x  c #44DE0DA70B72",
"c  c #4B4B0C0C0D0D",
"v  c #53D40C0C0484",
"b  c #5BDC0B0B0606",
"n  c #535307070909",
"m  c #53D40A0A0A8A",
"M  c #464612120606",
"N  c #4C21123D0586",
"B  c #436E12BD0B61",
"V  c #494916160808",
"C  c #47471A1A0E0E",
"Z  c #51EB13E10639",
"A  c #5C9C15960505",
"S  c #53A91A7004AF",
"D  c #52D215150909",
"F  c #5B0513BE0A0A",
"G  c #53D41C1C0B8B",
"H  c #5AC11B4E0BD9",
"J  c #59591C1C0505",
"K  c #4AA01A70146A",
"L  c #5BDC1D9E1313",
"P  c #67670B0B0707",
"I  c #6B6B08080505",
"U  c #68680B8B0A0A",
"Y  c #76760B8B0606",
"T  c #757506060909",
"R  c #767606060505",
"E  c #676717170404",
"W  c #61E118D90606",
"Q  c #6C161B1B0505",
"!  c #656514BF095F",
"~  c #62C91B4E0B72",
"^  c #6A6A1C9C0A0A",
"/  c #6A6A14940989",
"(  c #720B1D50059F",
")  c #78781E1E0606",
"_  c #73F41C9C0A8A",
"`  c #7B7B1A1A0A0A",
"'  c #62621B1B1010",
"]  c #757510101010",
"[  c #484822220D0D",
"{  c #5F5F23230303",
"}  c #4E4E36360B0B",
"|  c #585837371111",
" . c #64E421A20505",
".. c #6EEF21A20C0C",
"X. c #74CA242402AD",
"o. c #7C7C22220707",
"O. c #71F122A20B0B",
"+. c #797921210A8A",
"@. c #7B7B2B2B0303",
"#. c #727233330303",
"$. c #646421211313",
"%. c #757525251313",
"&. c #6F6F47473030",
"*. c #85850A0A0707",
"=. c #8D0D0C0C0707",
"-. c #8C8C0D0D0E0E",
";. c #9B9B0C0C0E0E",
":. c #89891F1F0707",
">. c #80801A1A0808",
",. c #A2A20A0A0707",
"<. c #A9A90C0C0808",
"1. c #B3B30A0A0707",
"2. c #B7B70D0D0808",
"3. c #BCBC0E0E0505",
"4. c #A7A710100D0D",
"5. c #ADAD10100F0F",
"6. c #B1B111110606",
"7. c #83D9242405DB",
"8. c #840428280505",
"9. c #8A092D2D0505",
"0. c #808026260909",
"q. c #80802B2B0808",
"w. c #8A8A2AC409D7",
"e. c #8A8A26260888",
"r. c #92922B6B0545",
"t. c #93932C2C095F",
"y. c #9C1C2EAF0909",
"u. c #818130300C0C",
"i. c #808038380909",
"p. c #8A8A34340404",
"a. c #979734340000",
"s. c #9D1C30B00404",
"d. c #941330300A0A",
"f. c #9A9A33890C62",
"g. c #838323231010",
"h. c #80802B2B1111",
"j. c #9D1D32B31313",
"k. c #949435351313",
"l. c #A2A22A2A0C0C",
"z. c #B6B62D2D0909",
"x. c #A5A537370606",
"c. c #A7A738380707",
"v. c #A6A631310909",
"b. c #ABEB34F50A4A",
"n. c #AC2C3ABB0C8C",
"m. c #B7B732320606",
"M. c #B5B53E3E0606",
"N. c #B2B231310909",
"B. c #BCBC35350808",
"V. c #B3083BE60D63",
"C. c #BFBF3B3B0A0A",
"Z. c #BCBC3A3A0404",
"A. c #A7A734341313",
"S. c #A9A93E3E1111",
"D. c #C4190D63095F",
"F. c #D1D10D0D0707",
"G. c #C2C212120D8D",
"H. c #C9C916160D0D",
"J. c #D8D814140606",
"K. c #D3D312120888",
"L. c #EBEB0B0B0909",
"P. c #F6F60F0F0808",
"I. c #FCFC0E0E0606",
"U. c #EDED13130606",
"Y. c #FEA813690606",
"T. c #FFFF1A9B0646",
"R. c #F37311110909",
"E. c #FFFF15150A4A",
"W. c #FFFF1AF008DE",
"Q. c #C6C63F3F0404",
"!. c #C9C934340B0B",
"~. c #D8D838380909",
"^. c #FFFF23230B0B",
"/. c #FFFF3E3E0909",
"(. c #8B8B42420505",
"). c #97974A4A0303",
"_. c #969641411313",
"`. c #A0A044440606",
"'. c #B35D40EB06B1",
"]. c #BCFC45C60585",
"[. c #B7B747470A0A",
"{. c #BBBB47470808",
"}. c #BC1148F309B4",
"|. c #BABA5F5F0404",
" X c #BFBF4C4C1313",
".X c #B3B346461313",
"XX c #B9B974740303",
"oX c #C2C246460909",
"OX c #CDCD42420909",
"+X c #C1C148480808",
"@X c #C4C44D4D0404",
"#X c #DF5F4DCD0808",
"$X c #D4D44D4D0606",
"%X c #CD7753FE05B0",
"&X c #CECE55550A0A",
"*X c #D3D350500F0F",
"=X c #DCDC5D5D0707",
"-X c #C8C84B4B1212",
";X c #D7D744441010",
":X c #DDDD4E4E1111",
">X c #FFFF42420D0D",
",X c #F2F248480D0D",
"<X c #FFFF49490B0B",
"1X c #F4F444440A0A",
"2X c #EEEE5D5D0606",
"3X c #EA695C5C0F0F",
"4X c #FFFF5F5F0000",
"5X c #F67655550A8A",
"6X c #FFFF55550C0C",
"7X c #FE7E5B5B0ACB",
"8X c #E9E951511111",
"9X c #FFFF5A5A1010",
"0X c #FBFB54541212",
"qX c #CACA64640000",
"wX c #DFDF7B7B0404",
"eX c #EE6E6BEC0686",
"rX c #E4E464640606",
"tX c #F4746D6D0606",
"yX c #FFFF64BA0A60",
"uX c #FFFF6A6A0F0F",
"iX c #F3F363630F0F",
"pX c #F3F372F30484",
"aX c #FFFF73C9065C",
"sX c #FFFF72720F0F",
"dX c #F6F67B7B0808",
"fX c #F8F878780808",
"gX c #FDFD79790404",
"hX c #C0C08E8E0404",
"jX c #CDCD9F9F0505",
"kX c #FD528585055B",
"lX c #FFFF8A8A0404",
"zX c #FDFD93130303",
"xX c #FFFF93930808",
"cX c #E6E682821919",
"vX c #FFFF83831010",
"bX c #FC7CACAC0282",
"nX c #E3E3BBBB0202",
"mX c #F2F2B6B60202",
"MX c #FFA9BD1201AC",
"NX c #F3F3B6B61111",
"BX c #FFFFC0C00505",
"VX c #FFFFC8C80000",
"CX c #FFFFC9C90808",
"ZX c #ECECDEDE0000",
"AX c #FFFFD4530484",
"SX c #FDFDDBDB0000",
"DX c #FDFDFFFF0000",
"FX c #FCFCACAC4646",
"GX c #FEFEF7F74C4C",
"HX c #FFFFFFFF5E5E",
"JX c #B9B99A9A8383",
"KX c #EAEAD4D4A8A8",
"LX c #F9F9E0E0C8C8",
"PX c #FCFCF0F0F6F6",
"IX c gray100",
"UX c None",
/* pixels */
"UXUXUXUXUXUXUXUXUXUXUXUX# # # , # : p 1 UXp UXUXUXUXUXUXUXUXUXUX",
"UXUXUXUXUXUXUXUXUXUX3 < @ < @ A.L L j.K $..XUXUXUXUXUXUXUXUXUXUX",
"UXUXUXUXUXUXUXUX4 4 4 3 3 4 5  X4 1 g 5 _.%.K 2 K UXUXUXUXUXUXUX",
"UXUXUXUXUXUXUX# # # @ @ L ; O ' ; : - = z u ^ S.+ UXUXUXUXUXUXUX",
"UXUXUXUXUXUX# # @ @ O @ q O ~ <Xu w 0 V.9X! _ n.[ O UXUXUXUXUXUX",
"UXUXUXUXUX< # # < @ j.O @ O *XuXx i x vXvX` t.f.H , 8Xq UXUXUXUX",
"UXUXUXUX1 < 4 < , , k.> O O 0X;Xi f H sX3Xf.n._ B -X%.5 UXUXUXUX",
"UXUXUX# # # @ @ @ O L @.O O i 0 i B Z >.t.'.w.i 9 F O ; ; UXUXUX",
"UXUXUX# # # X # _ # yX}.  + N x k S ( r.{.c.:.oXOXr q   + UXUXUX",
"UXUX# # # # @ ; ; + e.u O q D V D ^ d.}.{.+.b.5Xb.u d @ l.w UXUX",
"UXUX3 4 # > > > @ O > O O d G D H w.}.&Xt.D k iXx u f ' B # UXUX",
"UX# # # # @ l.  O @ X @   D W W 7.'.=X'._ A ) l.t t r ; @ : @ UX",
"UX# X X X O ^ C.H   O     Q ( 7.M.rX%Xe.E A Z N k i 8 8   -   UX",
"# # # # @ O O >XG   O O 9 e.r.{.pXeXc.) Q E A N k r 8 8 O O O X ",
"< < # @ , @ C 0X: @ O   V c.+XdXxX%X9.) ( W S N y y n 9 O w.V.; ",
"# X # # F w O O   O     8.$XlXMXkX].r.7.Q A Z k W yXyXz.1X5XD + ",
"# X   @ O O O           Z.gXAXMXpXoXs.7.E Z t e Y aXkXtX}       ",
"# # @ O     O O       $ 4XMXSXbXtX@Xr.E v v 8.%XzXAXCXeXs @ 9 X ",
"# < @ p , f.O X # X     JXHXMXzX2XQ.v.).|.wXkXpX].A O   O   X + ",
"# X @ t.!.6XO             GXVXbXmXnXjXXX).{ %           6 G.E.6 ",
"X O O   l./.              KXIXDXZXhX#.6                 b E.E.6 ",
"# # X O O O   X X X       LXIXNXa.e                     % 1.F.* ",
"# @ 1 # X X X X           &.PXFXX.s 7 $                 P T.W.6 ",
"# X c u X X   X X .           qXA s $                   I E.Y.* ",
"# @ O O                     | (.. .             r  .J   R I.P.$ ",
"X @ O : ..O O X X         o cX&                 @.v 9.  *.U.D.$ ",
"# @ g g.V.O   X X .     & @.7                   E X.p.  =.Y.<.. ",
"X X z.w o.  X X   X                             8.a.X.        X ",
"X   O   O           X                                 % 2.I.%   ",
"# # + @ X O X X       .                               l 1.R.  X ",
", @ 5 @ # # + X # o   o .                           O =.K.D.@   ",
"UX@ U O O   O     o                                   J.Y.R O UX",
"UX@ ..O.b.,X@                                       j Y.Y.$ O UX",
"UXUXB O w.f.O   @ X X         o       m.! m.N..     ,.T L.  UXUX",
"UXUX@ O :X8X@ @ #   # X X o o     O ~ 7X7X#X6X@.  z ^.E.= @ UXUX",
"UXUXUXO O   O @ O O O       X       O  .#X7 S S   K.^.Y.X UXUXUX",
"UXUXUXX X X -.5.4.;.U n 9 X           7.~.uXaXs 6 T.T.2.  UXUXUX",
"UXUXUXUX# O @ ; w m x ] G.U X X   O         O O R.W.W.- UXUXUXUX",
"UXUXUXUXUX< # @ @ @ @ @ @ @ X @ # # o # @ @ @ @ H.^.G.UXUXUXUXUX",
"UXUXUXUXUXUX@ # X @ #     @ o   X   o     O X   @ I.- UXUXUXUXUX",
"UXUXUXUXUXUXUXX X X X X   X   X   X O   X X X   @ UXUXUXUXUXUXUX",
"UXUXUXUXUXUXUXUX# # # # # # # X X # X + X X X # UXUXUXUXUXUXUXUX",
"UXUXUXUXUXUXUXUXUXUX# , # # # # # # # # # # UXUXUXUXUXUXUXUXUXUX"
};
